<svg width="249" height="195" viewBox="0 0 249 195" fill="none" xmlns="http://www.w3.org/2000/svg">
<path d="M43.264 162.671V140.975H5.12V125.295L39.616 73.0709H58.88V125.359H66.432V140.975H58.88V162.671H43.264ZM23.232 125.295L43.264 125.359L43.2 94.3829L23.232 125.295Z" fill="#A45B94"/>
<path d="M217.264 162.671V140.975H179.12V125.295L213.616 73.0709H232.88V125.359H240.432V140.975H232.88V162.671H217.264ZM197.232 125.295L217.264 125.359L217.2 94.3829L197.232 125.295Z" fill="#A45B94"/>
<path d="M162.742 89.2571C177.589 110.342 172.53 139.474 151.444 154.322C130.357 169.17 101.227 164.114 86.3796 143.026C71.5292 121.941 76.5858 92.8105 97.6736 77.9611C118.76 63.1118 147.892 68.1684 162.742 89.2571Z" fill="#1F2937"/>
<path d="M158.846 93.6705C172.312 112.792 167.725 139.204 148.604 152.667C129.487 166.13 103.072 161.547 89.6095 142.426C76.1487 123.307 80.7329 96.8917 99.853 83.4309C118.971 69.9652 145.382 74.5534 158.846 93.6705Z" fill="#374151"/>
<path d="M156.237 93.8356C168.557 111.33 164.362 135.502 146.866 147.82C129.371 160.14 105.2 155.943 92.8799 138.448C80.5598 120.954 84.757 96.7823 102.252 84.4622C119.748 72.1441 143.92 76.3413 156.237 93.8356Z" fill="#A45B94"/>
<path d="M148.48 146.618C148.329 139.483 146.662 131.337 141.188 124.959C128.716 110.436 117.831 114.067 109.138 102.037C103.933 94.8361 103.612 87.7334 104.194 83.1863C103.536 83.594 102.891 84.0134 102.253 84.4613C84.7577 96.7813 80.5605 120.953 92.8806 138.447C105.201 155.942 129.37 160.139 146.867 147.819C147.417 147.434 147.953 147.03 148.48 146.618Z" fill="#BFA1B8"/>
<path d="M169.6 47.5664C169.608 58.9462 149.428 68.1882 124.518 68.21C99.6101 68.2303 79.4108 59.0253 79.3988 47.6448C79.3916 36.2678 99.5767 27.0249 124.481 27.0032C149.391 26.9805 169.591 36.1883 169.6 47.5664Z" fill="#374151"/>
<path d="M165.114 50.4469C165.123 60.2368 146.946 68.1894 124.518 68.2088C102.089 68.2285 83.9007 60.3079 83.8919 50.518C83.8838 40.7237 102.06 32.7739 124.489 32.7545C146.918 32.7356 165.106 40.6554 165.114 50.4469Z" fill="#1F2937"/>
<path d="M112.064 64.9774L112.07 71.4629L136.982 71.4398L136.976 64.9543L112.064 64.9774Z" fill="#1F2937"/>
</svg>
