<svg width="345" height="354" viewBox="0 0 345 354" fill="none" xmlns="http://www.w3.org/2000/svg">
<path d="M221.55 128.362C221.213 128.834 220.885 129.291 220.556 129.751C220.325 130.074 220.093 130.397 219.866 130.714C219.628 131.049 219.394 131.373 219.164 131.698C218.806 132.201 218.456 132.69 218.113 133.172C218.023 133.298 217.933 133.422 217.846 133.547C217.38 134.199 216.933 134.83 216.5 135.438C216.481 135.465 216.461 135.494 216.442 135.52C215.211 137.255 214.121 138.795 213.207 140.091L212.654 138.994L168.84 161.108L169.337 162.095L40.5428 228.435C28.8964 234.436 24.3175 248.74 30.3175 260.388C36.3174 272.036 50.6242 276.612 62.2689 270.611L190.717 204.451L191.368 205.74L235.18 183.625L234.666 182.608C234.708 182.608 234.755 182.608 234.797 182.607C235.121 182.605 235.455 182.602 235.805 182.6C236.072 182.598 236.335 182.595 236.618 182.593C237.138 182.589 237.682 182.584 238.251 182.577C238.451 182.576 238.662 182.574 238.866 182.572C239.345 182.567 239.836 182.563 240.345 182.557C240.597 182.553 240.846 182.551 241.106 182.547C241.805 182.539 242.522 182.531 243.269 182.522C243.398 182.52 243.533 182.518 243.664 182.517C244.329 182.509 245.013 182.501 245.711 182.491C245.997 182.486 246.284 182.483 246.573 182.48C247.228 182.47 247.892 182.461 248.57 182.451C248.772 182.448 248.969 182.446 249.173 182.442C250.02 182.429 250.889 182.416 251.769 182.4C252.056 182.396 252.343 182.39 252.633 182.385C253.324 182.374 254.021 182.359 254.727 182.346C254.987 182.341 255.243 182.337 255.507 182.333C256.423 182.315 257.351 182.297 258.288 182.276C258.549 182.271 258.811 182.266 259.073 182.261C259.869 182.244 260.667 182.227 261.473 182.208C261.698 182.204 261.923 182.197 262.148 182.192C263.151 182.168 264.159 182.143 265.172 182.117C265.331 182.112 265.491 182.108 265.65 182.105C266.525 182.082 267.4 182.058 268.276 182.033C268.511 182.027 268.742 182.021 268.978 182.013C270.013 181.984 271.046 181.952 272.074 181.917C272.105 181.917 272.137 181.916 272.169 181.916C273.166 181.883 274.158 181.85 275.143 181.813C275.335 181.807 275.525 181.799 275.717 181.793C277.767 181.718 279.782 181.637 281.739 181.549C281.905 181.542 282.069 181.533 282.233 181.527C283.177 181.484 284.109 181.439 285.021 181.392C285.047 181.391 285.076 181.389 285.104 181.388C285.186 181.384 285.271 181.38 285.352 181.375L285.35 181.374C295.399 180.851 303.291 180.117 305.053 179.08C310.736 175.733 310.814 170.807 310.814 170.807C310.814 170.807 315.331 168.745 316.735 165.911C318.14 163.076 318.257 159.068 318.257 159.068C318.257 159.068 322.204 155.157 323.042 149.614C323.892 143.989 321.831 133.639 317.774 122.752C312.286 108.032 298.861 90.8353 290.418 86.6909C285.384 84.2203 279.923 85.232 279.923 85.232C279.923 85.232 276.565 83.0433 273.431 82.5803C270.302 82.1194 266.034 84.6545 266.034 84.6545C266.034 84.6545 261.942 81.9109 255.951 84.6744C252.065 86.4682 233.961 111.07 221.712 128.146C221.657 128.214 221.602 128.289 221.55 128.362Z" fill="#E5E7EB"/>
<path d="M299.786 149.194C301.189 146.36 301.308 142.35 301.308 142.35C301.308 142.35 305.255 138.44 306.093 132.897C306.941 127.273 304.882 116.921 300.825 106.037C295.337 91.3167 281.912 74.1182 273.469 69.9737C268.434 67.5007 262.975 68.5132 262.975 68.5132C262.975 68.5132 259.615 66.3255 256.482 65.8632C253.355 65.4013 249.085 67.9373 249.085 67.9373C249.085 67.9373 244.995 65.1944 239.002 67.9555C233.012 70.7214 193.203 127.73 193.203 127.73L201.372 142.308L212.885 165.921C212.885 165.921 282.415 165.709 288.102 162.362C293.785 159.015 293.865 154.089 293.865 154.089C293.865 154.089 298.383 152.031 299.786 149.194Z" fill="#FFFEF0"/>
<path opacity="0.75" d="M236.923 140.435C235.014 137.864 233.645 135.067 232.312 132.164C231.607 130.634 230.93 129.078 230.116 127.599C229.793 127.008 229.436 126.396 229.004 125.863C228.947 125.853 228.895 125.841 228.827 125.828C222.434 125.15 216.236 121.155 212.726 115.622C210.65 112.35 209.638 108.712 209.429 104.955C200.561 117.189 193.201 127.73 193.201 127.73L201.37 142.308L212.882 165.921C212.882 165.921 246.007 165.82 268.399 164.657C256.077 159.364 244.963 151.271 236.923 140.435Z" fill="#F9EBEA"/>
<path d="M197.267 127.385C197.267 127.385 239.962 69.612 242.427 71.4987C243.295 72.1628 197.267 127.385 197.267 127.385Z" fill="#F4F2E1"/>
<path d="M199.608 129.176C199.608 129.176 252.237 68.8232 253.774 69.0355C255.312 69.2421 199.608 129.176 199.608 129.176Z" fill="#F4F2E1"/>
<path d="M201.646 130.742C201.646 130.742 257.625 69.0799 259.508 69.789C261.386 70.5023 201.646 130.742 201.646 130.742Z" fill="#F4F2E1"/>
<path d="M202.27 133.404C202.27 133.404 265.201 70.2707 267.924 71.1457C270.652 72.0205 202.27 133.404 202.27 133.404Z" fill="#F4F2E1"/>
<path d="M203.072 135.47C203.072 135.47 275.062 74.1848 276.322 75.3929C277.576 76.6006 203.072 135.47 203.072 135.47Z" fill="#F4F2E1"/>
<path d="M204.348 137.658C204.348 137.658 279.87 78.3551 281.974 79.7225C284.079 81.094 204.348 137.658 204.348 137.658Z" fill="#F4F2E1"/>
<path d="M204.985 139.359C204.985 139.359 285.751 84.2999 286.426 85.309C287.102 86.3229 204.985 139.359 204.985 139.359Z" fill="#F4F2E1"/>
<path d="M204.997 141.795C204.997 141.795 289.037 89.5039 290.096 91.2867C291.154 93.0647 204.997 141.795 204.997 141.795Z" fill="#F4F2E1"/>
<path d="M206.869 143.235C206.869 143.235 292.973 96.403 293.77 97.2602C294.57 98.1148 206.869 143.235 206.869 143.235Z" fill="#F4F2E1"/>
<path d="M208.856 144.751C208.856 144.751 295.123 100.232 295.835 102.473C296.541 104.714 208.856 144.751 208.856 144.751Z" fill="#F4F2E1"/>
<path d="M209.949 147.285C209.949 147.285 297.338 106.531 298.162 108.619C298.985 110.712 209.949 147.285 209.949 147.285Z" fill="#F4F2E1"/>
<path d="M211.363 150.31C211.363 150.31 297.605 113.774 299.131 114.947C300.664 116.12 211.363 150.31 211.363 150.31Z" fill="#F4F2E1"/>
<path d="M212.232 153.649C212.232 153.649 299.625 119.696 301.19 121.136C302.754 122.575 212.232 153.649 212.232 153.649Z" fill="#F4F2E1"/>
<path d="M213.166 156.544C213.166 156.544 300.869 125.98 301.967 128.033C303.061 130.085 213.166 156.544 213.166 156.544Z" fill="#F4F2E1"/>
<path d="M214.141 158.434C214.141 158.434 301.456 132.496 301.906 133.813C302.357 135.126 214.141 158.434 214.141 158.434Z" fill="#F4F2E1"/>
<path d="M214.14 160.201C214.14 160.201 298.089 137.922 298.917 140.014C299.742 142.099 214.14 160.201 214.14 160.201Z" fill="#F4F2E1"/>
<path d="M214.912 162.493C214.912 162.493 296.399 148.272 297.034 146.818C297.665 145.363 214.912 162.493 214.912 162.493Z" fill="#F4F2E1"/>
<path d="M215.939 163.278C215.939 163.278 291.073 157.303 291.161 154.488L215.939 163.278Z" fill="#F4F2E1"/>
<path d="M217.327 164.343C217.327 164.343 286.951 161.399 287.365 159.441C287.78 157.476 217.327 164.343 217.327 164.343Z" fill="#F4F2E1"/>
<path d="M45.3203 253.898C33.6749 259.901 19.3681 255.325 13.3689 243.675C7.36895 232.027 11.9472 217.725 23.5943 211.723L171.928 135.315C183.577 129.314 197.878 133.893 203.881 145.541C209.882 157.189 205.303 171.493 193.653 177.494L45.3203 253.898Z" fill="#59181E"/>
<path d="M151.879 144.412L174.407 189.037L218.218 166.921L195.69 122.295L151.879 144.412Z" fill="#87353D"/>
<path d="M154.972 146.775L156.688 150.175L196.678 129.987L194.962 126.587L154.972 146.775Z" fill="#AF4F50"/>
</svg>
