<svg width="330" height="337" viewBox="0 0 330 337" fill="none" xmlns="http://www.w3.org/2000/svg">
<path d="M55.2129 209.284L129.72 336.956L321.232 225.203L246.725 97.5292L237.409 102.961L233.722 96.6361L242.325 91.5707L232.111 24.0682L228.918 19.7461L0 153.606L2.40586 159.652L52.9664 203.09L62.559 197.44L65.8497 203.078L55.2129 209.284ZM200.554 116.169L204.165 122.357L99.1008 183.672L95.7335 177.9L200.554 116.169Z" fill="#E5E7EB"/>
<path d="M245.362 83.2163L241.245 76.1533L207.996 95.5531L212.116 102.611L107.052 163.927L103.181 157.287L69.9246 176.689L73.801 183.332L63.1641 189.538L137.671 317.21L329.182 205.458L254.677 77.7832L245.362 83.2163Z" fill="#374151"/>
<path d="M127.748 164.74L76.3253 194.757L102.527 239.645L153.95 209.628L127.748 164.74Z" fill="#8DE0CD"/>
<path d="M156.541 214.114L105.106 244.118L132.086 290.368L183.521 260.363L156.541 214.114Z" fill="#43BF9F"/>
<path d="M311.672 190.712L134.344 294.189L141.07 305.716L318.398 202.239L311.672 190.712Z" fill="#6B7280"/>
<path d="M184.065 131.931L131.751 162.448L187.506 258.025L239.82 227.507L184.065 131.931Z" fill="#BDEFE2"/>
<path d="M256.296 89.7546L187.8 129.725L199.745 150.195L268.241 110.225L256.296 89.7546Z" fill="#4AA385"/>
<path d="M270.753 114.517L202.259 154.485L214.205 174.957L282.699 134.989L270.753 114.517Z" fill="#58B79A"/>
<path d="M285.583 139.917L217.09 179.886L229.033 200.352L297.526 160.383L285.583 139.917Z" fill="#65C9AD"/>
<path d="M300.112 164.864L231.615 204.834L243.56 225.304L312.057 185.334L300.112 164.864Z" fill="#BDEFE2"/>
<path d="M172.562 276.603C172.562 276.603 167.929 279.195 167.778 279.526C167.622 279.856 167.015 285.746 167.724 285.723C168.43 285.697 175.091 281.79 175.091 281.79L172.562 276.603Z" fill="#BDEFE2"/>
<path d="M293.79 205.501L181.299 271.143L184.495 276.616L296.987 210.972C298.496 210.092 299.004 208.151 298.121 206.648C297.24 205.134 295.3 204.624 293.79 205.501Z" fill="#D1D5DB"/>
<path d="M185.295 268.812L188.453 274.359L175.068 282.111L172.066 276.662L185.295 268.812Z" fill="#43BF9F"/>
<path d="M187.713 274.473L187.319 274.703L184.476 269.835L184.866 269.604L187.713 274.473Z" fill="#3AAD8C"/>
<path d="M10.3571 139.905L60.9177 183.342L250.277 71.8263L240.063 4.32227L10.3571 139.905Z" fill="#374151"/>
<path d="M236.869 0L240.063 4.32212L10.3571 139.904L7.95123 133.858L236.869 0Z" fill="#374151"/>
<path d="M241.133 69.1935L232.91 16.6191L23.2339 141.874L63.2649 175.087L241.133 69.1935Z" fill="#D3D3D3"/>
<g opacity="0.57">
<path d="M167.885 112.803L230.869 75.3066C210.602 81.5596 190.027 86.8529 169.224 91.7801C135.467 99.7834 101.684 108.987 67.5122 115.421L24.0912 141.361C35.8342 143.32 146.585 117.626 167.885 112.803Z" fill="#F2F2F2"/>
<path d="M96.1841 155.491L116.508 143.392C111.599 144.548 48.3206 158.515 44.0912 159.179L49.6382 163.782C65.2836 161.718 80.7648 158.773 96.1841 155.491Z" fill="#F2F2F2"/>
<path d="M202.392 58.1858C184.388 65.3725 166.325 72.4828 147.787 77.9663C153.11 76.6633 158.434 75.349 163.761 74.0867C189.121 68.0793 214.125 61.5059 238.646 53.2733L237.432 45.54C225.673 49.4132 213.982 53.5563 202.392 58.1858Z" fill="#F2F2F2"/>
</g>
</svg>
