<svg width="248" height="257" viewBox="0 0 248 257" fill="none" xmlns="http://www.w3.org/2000/svg">
<path d="M190.488 93.0606L87.9972 154.923L84.0354 148.252L81.3869 149.836L80.9339 149.073L22.7271 183.87L25.9777 189.344L33.2636 201.615L33.2642 201.614L33.7405 202.416L91.9467 167.62L91.4703 166.817L94.1201 165.233L90.0196 158.329L192.525 96.4558L195.467 101.367L195.654 95.6762L199.951 99.5101L198.821 93.6281L203.636 97.9887L201.632 91.6445L206.703 96.7713L204.251 90.3492L209.206 95.6157L206.726 88.6428L212.171 94.3927L209.189 87.0866L215.321 92.9804L212.469 84.8939L218.187 90.7614L215.29 83.2599L221.185 88.5989L218.321 81.1498L222.961 86.8894L220.522 79.8213L225.561 84.8942L223.413 78.1454L228.009 82.6433L225.742 76.5284L229.806 80.6397L227.545 75.3677L231.51 78.4836L230.04 73.8646L232.657 76.7301L231.41 72.9834L231.416 72.9805L233.248 74.7152L231.997 72.6293L233.023 72.0106L230.988 68.6166L229.962 69.2344L228.709 67.1495L229.38 69.5866L229.373 69.5903L226.66 66.7269L227.958 70.3936L224.581 66.9262L225.465 71.8966L221.881 67.4247L223.6 72.9522L219.276 68.0803L221.083 74.2588L216.147 69.192L218.253 76.0369L213.172 70.565L216.052 77.3676L210.837 71.339L212.773 79.0628L207.526 72.9812L210.014 80.7983L204.229 74.4787L206.548 82.6788L201.512 76.6154L204.02 84.1333L199.045 78.6685L201.361 85.5267L196.854 80.343L198.99 87.2413L194.343 82.4926L195.931 88.8071L191.281 85.0483L192.641 90.6501L187.545 88.1513L190.488 93.0606Z" fill="#E5E7EB"/>
<path d="M70.2576 158.959L226.174 65.7139L224.143 62.3179L68.2267 155.563L70.2576 158.959Z" fill="#9CA3AF"/>
<path d="M26.6965 194.052L87.4656 158.063L77.4084 141.081L16.6393 177.07L26.6965 194.052Z" fill="#EEFFFA"/>
<path d="M27.1438 194.847L85.2651 160.416L74.2781 141.869L16.1567 176.3L27.1438 194.847Z" fill="#BDEFE2"/>
<path d="M22.0174 178.526L74.4108 147.511L72.8841 144.932L20.4907 175.947L22.0174 178.526Z" fill="#EEFFFA"/>
<path d="M180.75 81.6013L184.129 87.2511L223.549 63.6767L221.856 60.8516L222.529 63.2981L219.811 60.4198L221.105 64.0811L217.735 60.6072L218.614 65.5689L215.038 61.0924L216.752 66.6136L212.438 61.7353L214.238 67.9042L209.314 62.8284L211.413 69.6652L206.344 64.1827L209.215 70.9811L204.012 64.9438L205.941 72.6555L200.705 66.5658L203.186 74.3746L197.414 68.0429L199.724 76.2329L194.7 70.1608L197.201 77.6713L192.236 72.1967L194.545 79.0491L190.048 73.857L192.177 80.7478L187.54 75.9881L189.123 82.2941L184.481 78.523L185.837 84.1165L180.75 81.6013Z" fill="#4AA385"/>
<path d="M188.656 94.8177L185.279 89.1677L224.696 65.5922L226.386 68.4171L224.547 66.6698L225.795 70.4251L223.183 67.5544L224.649 72.1692L220.693 69.0415L222.946 74.3106L218.891 70.192L221.152 76.3001L216.566 71.7928L218.707 78.534L213.679 73.4512L216.111 80.5107L211.481 74.7642L214.336 82.2072L208.453 76.8551L211.342 84.3488L205.637 78.4719L208.481 86.5496L202.362 80.6415L205.334 87.9425L199.902 82.1819L202.375 89.1474L197.43 83.8712L199.874 90.2888L194.816 85.152L196.813 91.4876L192.008 87.1176L193.133 92.9866L188.845 89.1452L188.656 94.8177Z" fill="#374151"/>
</svg>
