<svg width="210" height="277" viewBox="0 0 210 277" fill="none" xmlns="http://www.w3.org/2000/svg">
<path d="M181.36 154.704L181.516 154.793C181.516 154.793 183.091 152.223 185.81 145.72C186.078 145.118 186.35 144.516 186.615 143.901C186.85 143.361 187.079 142.826 187.302 142.289C190.094 136.063 190.875 133.238 190.875 133.238L190.749 133.197C191.467 131.052 192.062 129.046 192.525 127.235C193.288 124.587 193.611 122.778 193.611 121.327C193.771 119.287 193.515 117.978 192.776 117.657C192.75 117.645 192.725 117.642 192.698 117.634C189.594 113.064 171.629 98.6807 153.272 89.5239C134.192 80.0075 107.826 74.3471 103.813 74.6401C103.708 74.6193 103.593 74.625 103.473 74.6431C103.453 74.6464 103.433 74.651 103.413 74.6554C102.239 74.889 100.393 76.887 98.1885 80.1668C98.102 79.5882 97.9107 79.2135 97.6041 79.0805C97.4784 79.026 97.3351 79.0153 97.1761 79.0424C97.1908 78.9526 97.1974 78.906 97.1974 78.906C97.1974 78.906 48.7286 61.3071 36.8026 59.8917C36.2985 59.8306 35.7992 59.9038 35.3082 60.0855C32.8168 60.3826 28.4785 66.1332 24.8542 74.0219L24.8524 74.0214C24.6394 74.4886 24.4258 74.9641 24.2173 75.4441C23.9768 75.9977 23.7478 76.5469 23.5257 77.092C23.4415 77.3002 23.3631 77.5056 23.2818 77.7118C23.1502 78.0452 23.0181 78.3792 22.8934 78.7084C22.8001 78.9545 22.7137 79.1964 22.625 79.4397C22.5214 79.7236 22.4177 80.0064 22.3204 80.2857C22.2288 80.5465 22.1429 80.8034 22.0571 81.0602C21.9721 81.3134 21.8882 81.5653 21.8083 81.8139C21.7221 82.0816 21.6403 82.3453 21.5603 82.6083C21.4927 82.8296 21.4267 83.0491 21.3636 83.2664C21.3602 83.2769 21.358 83.2872 21.3546 83.2977C21.288 83.5255 21.2221 83.7527 21.16 83.9766C21.1404 84.0487 21.1206 84.1197 21.1015 84.1912C21.0645 84.3276 21.0304 84.4619 20.9946 84.597C20.9513 84.7602 20.9064 84.9265 20.866 85.0877C20.8321 85.2244 20.8008 85.3567 20.7685 85.4915C20.7453 85.5885 20.7221 85.6843 20.6995 85.7806C20.6541 85.9721 20.6128 86.1615 20.572 86.349C20.5387 86.5019 20.5047 86.6542 20.4742 86.8038C20.4662 86.8404 20.4577 86.8787 20.4497 86.9153L20.4523 86.9175C19.6516 90.8895 19.7806 93.7452 21.0162 94.44C21.1688 94.6602 21.3391 94.8598 21.5422 95.0342C30.7174 102.781 76.6686 126.18 76.6686 126.18C76.6686 126.18 76.6986 126.142 76.7545 126.073C76.8413 126.207 76.9498 126.304 77.0761 126.357C77.5388 126.559 78.2219 126.195 79.0658 125.368C78.9262 126.147 78.825 126.857 78.7645 127.496C78.7643 127.5 78.7639 127.503 78.7636 127.507C78.7333 127.833 78.7144 128.136 78.705 128.422C78.7037 128.46 78.7013 128.5 78.7006 128.537C78.694 128.805 78.6995 129.052 78.7129 129.282C78.7159 129.329 78.7188 129.377 78.7228 129.421C78.7408 129.641 78.767 129.844 78.8046 130.025C78.8112 130.056 78.82 130.085 78.8271 130.115C78.871 130.299 78.9226 130.465 78.9887 130.602C79.0161 130.758 79.0508 130.892 79.1092 130.983C80.7182 133.574 103.442 149.541 123.9 157.163C144.36 164.784 168.844 168.043 172.194 166.562C174.514 165.54 176.182 163.879 179.383 158.135C180.029 157.071 180.69 155.923 181.36 154.704Z" fill="#E5E7EB"/>
<path d="M96.2237 60.3735C93.6313 59.8549 86.3364 71.4516 79.7123 86.7145C73.5025 101.014 70.043 113.546 71.4 116.334C71.4274 116.49 71.4626 116.623 71.5205 116.715C73.1301 119.306 95.854 135.273 116.312 142.895C136.772 150.516 161.256 153.776 164.606 152.294C166.926 151.272 168.594 149.611 171.795 143.867C172.439 142.805 173.1 141.656 173.769 140.438L173.925 140.528C173.925 140.528 175.5 137.957 178.219 131.454C178.487 130.852 178.759 130.25 179.023 129.635C179.258 129.096 179.488 128.56 179.71 128.022C182.503 121.797 183.285 118.972 183.285 118.972L183.158 118.931C183.877 116.785 184.471 114.78 184.935 112.969C185.698 110.321 186.02 108.512 186.02 107.061C186.18 105.021 185.925 103.712 185.185 103.392C185.16 103.38 185.134 103.377 185.108 103.369C182.004 98.7984 164.038 84.4156 145.681 75.2593C126.604 65.7415 100.237 60.0805 96.2237 60.3735Z" fill="#EFEFEF"/>
<path d="M96.2237 60.3734C96.0006 60.3298 95.7378 60.3792 95.4426 60.513C99.0997 61.6388 102.689 63.1638 106.442 63.8966C110.531 64.6944 114.6 65.7494 118.593 66.9281C126.953 69.3895 134.786 73.0383 142.518 77.0212C153.88 82.8752 165.005 89.6269 173.992 98.8221C176.883 101.782 180.274 105.138 181.519 109.203C182.817 113.452 179.945 116.765 175.674 117.095C172.523 117.334 170.388 115.435 167.454 114.934C167.258 114.901 167.12 114.878 167.021 114.862C166.974 114.933 166.92 115.002 166.879 115.078C166.386 116.003 165.949 116.956 165.561 117.93C164.195 121.364 162.903 124.982 162.084 128.625C163.663 129.703 165.037 130.75 166.046 132.619C167.003 134.381 167.758 136.426 167.523 138.471C167.105 142.096 164.255 144.609 160.931 145.748C151.74 148.894 141.447 146.865 132.262 144.808C119.401 141.929 106.264 138.163 94.6163 131.879C85.9968 127.228 75.6274 122.498 71.1766 113.229C71.0386 114.668 71.1062 115.731 71.4012 116.335C71.4287 116.491 71.4639 116.624 71.5218 116.716C73.1314 119.307 95.8553 135.274 116.314 142.896C136.774 150.517 161.258 153.777 164.607 152.295C166.927 151.273 168.595 149.612 171.796 143.868C172.44 142.806 173.101 141.657 173.77 140.439L173.926 140.529C173.926 140.529 175.501 137.958 178.22 131.455C178.488 130.853 178.76 130.251 179.024 129.636C179.26 129.097 179.489 128.561 179.712 128.023C182.504 121.798 183.286 118.973 183.286 118.973L183.159 118.932C183.878 116.786 184.472 114.781 184.936 112.97C185.699 110.322 186.021 108.513 186.022 107.062C186.182 105.022 185.926 103.713 185.187 103.393C185.161 103.381 185.135 103.378 185.109 103.37C182.005 98.7994 164.039 84.4165 145.682 75.2603C126.604 65.7414 100.237 60.0804 96.2237 60.3734Z" fill="white"/>
<path d="M74.271 105.367C74.271 105.367 72.131 113.692 74.1457 115.829C76.1627 117.965 105.394 134.444 129.07 142.411C152.745 150.377 160.079 142.204 162.511 131.271C164.946 120.338 170.082 116.259 170.61 106.811C171.135 97.3665 158.253 84.4082 132.606 75.1652C106.961 65.9238 97.176 62.3059 93.2767 66.923C89.38 71.5411 83.7883 84.2588 81.2596 88.628C78.7298 92.9985 74.271 105.367 74.271 105.367Z" fill="#EA818B"/>
<path d="M79.6259 92.7011C78.712 94.8127 73.2352 101.523 77.4368 105.857C81.6393 110.189 153.253 142.852 156.23 135.996C159.21 129.138 157.101 131.045 159.894 127.555C162.69 124.065 158.523 118.184 148.982 114.353C139.438 110.523 96.4361 92.9166 87.9913 90.4C79.5456 87.8858 79.6259 92.7011 79.6259 92.7011Z" fill="#F498A6"/>
<path d="M89.6083 64.6396C89.6083 64.6396 41.1401 47.0412 29.2134 45.6252C28.7099 45.5635 28.2094 45.6368 27.7191 45.819C25.0792 46.1334 20.3681 52.5645 16.6282 61.1776C12.5783 70.503 11.1778 78.9066 13.4281 80.1722C13.5814 80.393 13.7517 80.5926 13.9548 80.767C23.1299 88.5137 69.0818 111.913 69.0818 111.913C69.0818 111.913 69.1112 111.875 69.1671 111.806C69.2539 111.94 69.3631 112.037 69.4887 112.09C71.517 112.973 77.7569 103.104 83.4259 90.0482C89.0931 76.9936 92.0457 65.6964 90.0156 64.8146C89.8906 64.7606 89.7466 64.7494 89.5875 64.7765C89.6016 64.6862 89.6083 64.6396 89.6083 64.6396Z" fill="#374151"/>
<path d="M89.6083 64.6396C89.6083 64.6396 41.1401 47.0412 29.2134 45.6252C28.7099 45.5635 28.2094 45.6368 27.7191 45.819C25.0792 46.1334 20.3681 52.5645 16.6282 61.1776C12.5783 70.503 11.1778 78.9066 13.4281 80.1722C13.5814 80.393 13.7517 80.5926 13.9548 80.767C23.1299 88.5137 69.0818 111.913 69.0818 111.913C69.0818 111.913 69.1112 111.875 69.1671 111.806C69.2539 111.94 69.3631 112.037 69.4887 112.09C71.517 112.973 77.7569 103.104 83.4259 90.0482C89.0931 76.9936 92.0457 65.6964 90.0156 64.8146C89.8906 64.7606 89.7466 64.7494 89.5875 64.7765C89.6016 64.6862 89.6083 64.6396 89.6083 64.6396Z" fill="#374151"/>
<path opacity="0.53" d="M16.6282 61.1774C14.8042 65.3793 13.5196 69.3898 12.8617 72.6485C22.4425 80.0978 38.0694 88.9837 56.4297 96.9564C63.2123 99.9023 69.8278 102.487 76.0834 104.676C78.3774 100.82 80.9556 95.7387 83.4258 90.0481C83.6175 89.6071 83.8039 89.1672 83.9911 88.7313L17.2632 59.7548C17.0502 60.2219 16.836 60.6969 16.6282 61.1774Z" fill="#6B7280"/>
<path opacity="0.32" d="M46.3742 85.9632C33.3999 80.3282 22.0031 74.2301 13.8323 68.8008C13.427 70.1659 13.1017 71.456 12.8623 72.6485C22.4431 80.0978 38.07 88.9837 56.4303 96.9564C63.2128 99.9023 69.8284 102.487 76.084 104.676C77.2821 102.664 78.5578 100.31 79.8547 97.7136C70.5037 95.3916 58.7775 91.3493 46.3742 85.9632Z" fill="#9CA3AF"/>
<path opacity="0.73" d="M105.599 70.9783C105.454 70.5845 116.29 72.1068 130.971 77.5342C145.651 82.9612 166.084 93.0329 165.525 102.005C165.208 107.116 164.515 102.445 153.518 94.1788C142.06 85.5673 141.866 85.7359 126.735 79.827C117.101 76.0641 105.599 70.9783 105.599 70.9783Z" fill="#F498A6"/>
<path d="M125.752 256.447L125.833 256.56C125.833 256.56 127.772 255.261 131.787 251.565C132.17 251.228 132.557 250.893 132.941 250.546C133.282 250.242 133.615 249.939 133.946 249.634C137.923 246.157 139.386 244.421 139.386 244.421L139.311 244.352C140.509 243.075 141.576 241.856 142.488 240.731C143.881 239.116 144.692 237.947 145.162 236.926C145.934 235.543 146.177 234.539 145.76 234.074C145.746 234.058 145.729 234.048 145.713 234.033C145.007 229.814 137.018 213.888 127.063 201.511C116.717 188.648 99.9977 176.142 97.0799 175.051C97.013 175.003 96.9302 174.969 96.8397 174.943C96.825 174.939 96.809 174.936 96.7939 174.933C95.892 174.717 93.9474 175.526 91.3364 177.121C91.4626 176.686 91.4491 176.36 91.2764 176.168C91.2056 176.089 91.1082 176.035 90.9876 176.003C91.027 175.944 91.0467 175.914 91.0467 175.914C91.0467 175.914 62.6374 147.863 54.7048 143.012C54.37 142.806 53.995 142.696 53.5909 142.665C51.742 142.069 46.8309 144.712 41.7309 149.09L41.7297 149.089C41.4289 149.349 41.1249 149.614 40.823 149.885C40.4748 150.196 40.1362 150.509 39.8037 150.82C39.6772 150.94 39.5556 151.059 39.4317 151.178C39.2314 151.37 39.0305 151.562 38.8363 151.753C38.6911 151.896 38.5521 152.038 38.4111 152.181C38.2464 152.347 38.0821 152.513 37.9233 152.678C37.7745 152.832 37.6311 152.984 37.4876 153.137C37.346 153.288 37.2056 153.438 37.069 153.587C36.9218 153.748 36.779 153.907 36.6377 154.066C36.5185 154.2 36.4012 154.333 36.2865 154.465C36.2808 154.472 36.2759 154.478 36.2701 154.484C36.1496 154.623 36.0298 154.762 35.9137 154.899C35.8766 154.943 35.8397 154.987 35.8032 155.031C35.7331 155.115 35.6657 155.199 35.5968 155.282C35.5136 155.383 35.4283 155.485 35.3477 155.586C35.2796 155.671 35.2148 155.754 35.1486 155.838C35.1009 155.899 35.0536 155.959 35.0065 156.019C34.9127 156.139 34.8224 156.259 34.7331 156.378C34.6602 156.475 34.5871 156.571 34.5173 156.666C34.4998 156.689 34.4814 156.714 34.464 156.737L34.4651 156.739C32.6177 159.275 31.7853 161.326 32.4299 162.214C32.4661 162.418 32.5214 162.614 32.6079 162.802C36.5584 171.218 61.3214 202.535 61.3214 202.535C61.3214 202.535 61.3547 202.518 61.4163 202.488C61.4342 202.61 61.4793 202.713 61.5507 202.792C61.8111 203.083 62.4094 203.048 63.2704 202.739C62.9202 203.242 62.6195 203.709 62.3706 204.138C62.369 204.141 62.3678 204.143 62.3662 204.146C62.2396 204.365 62.1283 204.573 62.0293 204.771C62.0161 204.797 62.0014 204.824 61.9889 204.85C61.8976 205.037 61.8218 205.212 61.7566 205.378C61.7435 205.413 61.7304 205.447 61.7188 205.479C61.6602 205.64 61.613 205.791 61.5812 205.93C61.5757 205.954 61.5726 205.977 61.5678 206.001C61.5393 206.145 61.5217 206.279 61.5239 206.396C61.4928 206.515 61.4741 206.62 61.4857 206.703C61.7801 209.046 72.6047 227.625 84.5336 239.601C96.4639 251.577 112.635 261.785 115.47 261.826C117.433 261.858 119.143 261.228 123.252 258.222C124.051 257.682 124.887 257.088 125.752 256.447Z" fill="#E5E7EB"/>
<path d="M96.4253 162.026C94.7692 160.823 85.8881 166.624 76.2937 175.22C67.3021 183.272 60.817 190.97 60.8703 193.371C60.8391 193.489 60.821 193.594 60.832 193.677C61.1268 196.021 71.9513 214.6 83.8802 226.576C95.8105 238.552 111.982 248.761 114.817 248.801C116.78 248.832 118.49 248.203 122.599 245.197C123.395 244.658 124.232 244.063 125.096 243.423L125.177 243.536C125.177 243.536 127.116 242.236 131.131 238.541C131.514 238.204 131.901 237.868 132.285 237.521C132.625 237.217 132.959 236.915 133.29 236.608C137.267 233.131 138.73 231.397 138.73 231.397L138.655 231.327C139.854 230.05 140.92 228.831 141.832 227.707C143.225 226.091 144.036 224.923 144.506 223.902C145.278 222.518 145.521 221.515 145.104 221.05C145.09 221.034 145.073 221.023 145.057 221.009C144.351 216.79 136.361 200.864 126.407 188.488C116.063 175.624 99.3431 163.118 96.4253 162.026Z" fill="#EFEFEF"/>
<path d="M96.4254 162.027C96.2826 161.924 96.0818 161.874 95.8308 161.873C98.0397 163.847 100.072 166.08 102.475 167.809C105.094 169.692 107.615 171.75 110.044 173.87C115.129 178.304 119.46 183.404 123.613 188.706C129.713 196.497 135.357 204.843 138.707 214.218C139.784 217.235 141.085 220.692 140.647 223.955C140.186 227.363 137.095 228.766 133.983 227.617C131.689 226.767 130.801 224.74 128.898 223.439C128.771 223.352 128.682 223.292 128.617 223.249C128.561 223.283 128.501 223.315 128.447 223.355C127.802 223.846 127.186 224.375 126.599 224.935C124.527 226.909 122.449 229.037 120.695 231.335C121.457 232.604 122.085 233.784 122.191 235.426C122.295 236.975 122.165 238.657 121.338 240.021C119.872 242.435 117.055 243.282 114.348 243.008C106.865 242.25 100.28 237.496 94.4828 233.079C86.3659 226.896 78.3411 220 72.1779 211.813C67.6176 205.754 61.8518 199.074 61.717 191.115C61.1548 192.082 60.8587 192.852 60.8709 193.372C60.8398 193.491 60.8217 193.596 60.8327 193.679C61.1274 196.023 71.952 214.602 83.8809 226.578C95.8112 238.554 111.982 248.763 114.818 248.803C116.78 248.834 118.491 248.205 122.6 245.199C123.396 244.659 124.233 244.065 125.097 243.424L125.178 243.538C125.178 243.538 127.117 242.238 131.132 238.543C131.515 238.206 131.901 237.87 132.286 237.523C132.626 237.219 132.96 236.917 133.291 236.61C137.268 233.133 138.731 231.399 138.731 231.399L138.655 231.329C139.854 230.052 140.921 228.833 141.833 227.709C143.225 226.093 144.037 224.924 144.506 223.904C145.278 222.52 145.522 221.516 145.105 221.052C145.091 221.036 145.074 221.025 145.058 221.011C144.352 216.792 136.362 200.866 126.408 188.49C116.063 175.625 99.3433 163.118 96.4254 162.027Z" fill="white"/>
<path d="M66.4358 186.583C66.4358 186.583 62.2389 191.748 62.9652 193.903C63.6937 196.058 78.9312 217.101 93.012 230.36C107.092 243.618 114.894 240.239 120.14 233.333C125.387 226.429 130.319 225.22 133.745 218.743C137.168 212.269 132.294 198.988 117.239 184.194C102.185 169.402 96.4707 163.694 92.2349 165.681C88.0005 167.67 79.9552 174.81 76.7637 177.066C73.5711 179.323 66.4358 186.583 66.4358 186.583Z" fill="#818CF8"/>
<path d="M74.2975 179.404C72.9719 180.594 66.9494 183.545 68.5042 187.952C70.0605 192.358 109.883 238.489 114.193 234.627C118.507 230.766 116.407 231.426 119.5 229.874C122.595 228.323 121.565 222.838 116.091 217.059C110.615 211.278 86.0541 184.99 80.9266 180.49C75.7977 175.99 74.2975 179.404 74.2975 179.404Z" fill="#A5B4FC"/>
<path d="M90.3921 162.89C90.3921 162.89 61.9831 134.84 54.0503 129.988C53.716 129.782 53.3402 129.672 52.9363 129.642C50.9775 129.009 45.584 132.011 40.1685 136.861C34.3046 142.112 30.6026 147.572 31.7765 149.19C31.813 149.395 31.8683 149.59 31.9548 149.778C35.9053 158.194 60.6685 189.512 60.6685 189.512C60.6685 189.512 60.7016 189.495 60.7632 189.464C60.781 189.586 60.8265 189.69 60.8976 189.768C62.0393 191.045 69.6197 186.119 77.8285 178.767C86.0358 171.415 91.7653 164.421 90.6221 163.145C90.5516 163.066 90.4539 163.012 90.3333 162.98C90.3724 162.921 90.3921 162.89 90.3921 162.89Z" fill="#374151"/>
<path d="M90.3921 162.89C90.3921 162.89 61.9831 134.84 54.0503 129.988C53.716 129.782 53.3402 129.672 52.9363 129.642C50.9775 129.009 45.584 132.011 40.1685 136.861C34.3046 142.112 30.6026 147.572 31.7765 149.19C31.813 149.395 31.8683 149.59 31.9548 149.778C35.9053 158.194 60.6685 189.512 60.6685 189.512C60.6685 189.512 60.7016 189.495 60.7632 189.464C60.781 189.586 60.8265 189.69 60.8976 189.768C62.0393 191.045 69.6197 186.119 77.8285 178.767C86.0358 171.415 91.7653 164.421 90.6221 163.145C90.5516 163.066 90.4539 163.012 90.3333 162.98C90.3724 162.921 90.3921 162.89 90.3921 162.89Z" fill="#374151"/>
<path opacity="0.53" d="M40.1685 136.862C37.5269 139.228 35.3266 141.635 33.8103 143.714C38.1423 152.052 46.2635 163.356 56.6028 174.9C60.4221 179.166 64.2408 183.122 67.9339 186.685C70.7944 184.714 74.2509 181.972 77.8285 178.768C78.1059 178.519 78.3792 178.27 78.6518 178.024L41.0752 136.066C40.7743 136.326 40.47 136.591 40.1685 136.862Z" fill="#6B7280"/>
<path opacity="0.32" d="M53.0828 163.915C45.7768 155.757 39.7303 147.782 35.7372 141.321C35.0108 142.15 34.3648 142.953 33.8109 143.714C38.1429 152.052 46.2641 163.356 56.6035 174.9C60.4227 179.166 64.2414 183.122 67.9345 186.685C69.4279 185.657 71.0864 184.413 72.8382 183.006C67.0102 178.349 60.0674 171.714 53.0828 163.915Z" fill="#9CA3AF"/>
<path opacity="0.73" d="M99.593 172.518C99.6183 172.194 106.749 176.768 115.323 185.332C123.896 193.896 135.015 207.587 131.722 213.719C129.846 217.212 130.869 213.702 125.804 204.331C120.527 194.569 120.336 194.625 111.602 185.576C106.04 179.814 99.593 172.518 99.593 172.518Z" fill="#A5B4FC"/>
</svg>
