<svg width="297" height="299" viewBox="0 0 297 299" fill="none" xmlns="http://www.w3.org/2000/svg">
<path d="M44.7218 71.4357L21.8694 137.399L146.421 181.948L148.251 176.833L178.39 187.614L179.232 185.26L184.652 187.197L185.717 184.219C198.022 188.448 233.557 200.583 243.813 203.274C256.284 206.546 266.934 204.13 267.687 202.025C268.443 199.922 266.72 181.512 257.713 169.394C248.698 157.277 246.955 156.358 235.987 153.019C227.648 150.487 209.543 143.671 201.333 140.546L202.455 137.411L197.042 135.475L197.842 133.24L167.699 122.459L169.931 116.22L44.7218 71.4357Z" fill="#E5E7EB"/>
<path d="M198.417 175.817C198.417 175.817 248.295 193.064 260.765 196.336C273.236 199.608 283.887 197.191 284.639 195.087C285.397 192.983 283.673 174.573 274.665 162.456C265.651 150.339 263.908 149.419 252.939 146.082C241.97 142.75 214.084 131.999 214.084 131.999L198.417 175.817Z" fill="#DC2626"/>
<path d="M219.403 130.478L95.1119 86.0254L77.3064 135.81L201.597 180.263L219.403 130.478Z" fill="#374151"/>
<path d="M214.823 126.288L95.9482 83.7725L76.5014 138.147L195.376 180.662L214.823 126.288Z" fill="#6B7280"/>
<path d="M211.086 128.336L161.274 110.471L159.879 114.361L209.691 132.226L211.086 128.336Z" fill="#E5E7EB"/>
<path d="M38.8215 130.458L61.6739 64.4951L186.883 109.281L163.373 175.009L38.8215 130.458Z" fill="#374151"/>
<path d="M265.788 176.584C260.267 165.337 258.328 154.987 261.451 153.455C264.576 151.919 271.58 159.796 277.095 171.041C282.608 182.283 284.545 192.649 281.423 194.176C278.297 195.711 271.297 187.828 265.788 176.584Z" fill="#F87171"/>
<path d="M210.822 174.884L212.925 170.419C212.925 170.419 267.433 189.121 268.097 191.875C268.76 194.626 210.822 174.884 210.822 174.884Z" fill="#F87171"/>
<path opacity="0.23" d="M184.036 117.374L76.2858 78.0254L71.1712 92.031L178.922 131.38L184.036 117.374Z" fill="#6B7280"/>
</svg>
