<svg width="62" height="32" viewBox="0 0 62 32" fill="none" xmlns="http://www.w3.org/2000/svg">
<rect width="24" height="32" fill="#A45B94"/>
<path d="M14.92 23H12.25L8.6 12.98H10.82L13.58 20.6L16.35 12.98H18.56L14.92 23ZM20.0984 13H22.1784V23H20.0984V13ZM21.1584 11.55C20.8384 11.55 20.5718 11.4467 20.3584 11.24C20.1451 11.0333 20.0384 10.7733 20.0384 10.46C20.0384 10.1533 20.1451 9.89667 20.3584 9.69C20.5718 9.47667 20.8351 9.37 21.1484 9.37C21.4551 9.37 21.7151 9.47667 21.9284 9.69C22.1418 9.89667 22.2484 10.1533 22.2484 10.46C22.2484 10.7733 22.1418 11.0333 21.9284 11.24C21.7218 11.4467 21.4651 11.55 21.1584 11.55Z" fill="white"/>
<rect x="24.5" y="0.5" width="37" height="31" fill="white"/>
<rect x="24.5" y="0.5" width="37" height="31" stroke="#A45B94"/>
<path d="M29.6 23.26C28.68 23.26 27.84 23.0233 27.08 22.55C26.3267 22.0767 25.7233 21.4433 25.27 20.65C24.8233 19.85 24.6 18.9667 24.6 18C24.6 17.2667 24.73 16.5833 24.99 15.95C25.25 15.31 25.6067 14.75 26.06 14.27C26.52 13.7833 27.0533 13.4033 27.66 13.13C28.2667 12.8567 28.9133 12.72 29.6 12.72C30.52 12.72 31.3567 12.9567 32.11 13.43C32.87 13.9033 33.4733 14.54 33.92 15.34C34.3733 16.14 34.6 17.0267 34.6 18C34.6 18.7267 34.47 19.4067 34.21 20.04C33.95 20.6733 33.59 21.2333 33.13 21.72C32.6767 22.2 32.1467 22.5767 31.54 22.85C30.94 23.1233 30.2933 23.26 29.6 23.26ZM29.6 21.18C30.1533 21.18 30.65 21.0333 31.09 20.74C31.53 20.4467 31.8767 20.06 32.13 19.58C32.39 19.0933 32.52 18.5667 32.52 18C32.52 17.42 32.3867 16.8867 32.12 16.4C31.86 15.9133 31.51 15.5267 31.07 15.24C30.63 14.9467 30.14 14.8 29.6 14.8C29.0533 14.8 28.5567 14.9467 28.11 15.24C27.67 15.5333 27.32 15.9233 27.06 16.41C26.8067 16.8967 26.68 17.4267 26.68 18C26.68 18.5933 26.8133 19.13 27.08 19.61C27.3467 20.09 27.7 20.4733 28.14 20.76C28.5867 21.04 29.0733 21.18 29.6 21.18ZM36.2156 23V13H38.2956V14.06C38.6423 13.6467 39.069 13.32 39.5756 13.08C40.0823 12.84 40.629 12.72 41.2156 12.72C41.589 12.72 41.959 12.77 42.3256 12.87L41.4956 14.97C41.2356 14.87 40.9756 14.82 40.7156 14.82C40.2756 14.82 39.8723 14.93 39.5056 15.15C39.139 15.3633 38.8456 15.6533 38.6256 16.02C38.4056 16.3867 38.2956 16.7933 38.2956 17.24V23H36.2156ZM50.7925 13H52.8725V23H50.7825L50.7025 21.55C50.4092 22.0633 50.0125 22.4767 49.5125 22.79C49.0125 23.1033 48.4225 23.26 47.7425 23.26C47.0092 23.26 46.3192 23.1233 45.6725 22.85C45.0258 22.57 44.4558 22.1833 43.9625 21.69C43.4758 21.1967 43.0958 20.63 42.8225 19.99C42.5492 19.3433 42.4125 18.65 42.4125 17.91C42.4125 17.1967 42.5458 16.5267 42.8125 15.9C43.0792 15.2667 43.4492 14.7133 43.9225 14.24C44.3958 13.7667 44.9425 13.3967 45.5625 13.13C46.1892 12.8567 46.8592 12.72 47.5725 12.72C48.2992 12.72 48.9392 12.8867 49.4925 13.22C50.0525 13.5467 50.5158 13.9667 50.8825 14.48L50.7925 13ZM47.6925 21.25C48.2792 21.25 48.7925 21.1067 49.2325 20.82C49.6725 20.5267 50.0125 20.1333 50.2525 19.64C50.4992 19.1467 50.6225 18.6 50.6225 18C50.6225 17.3933 50.4992 16.8433 50.2525 16.35C50.0058 15.8567 49.6625 15.4667 49.2225 15.18C48.7892 14.8867 48.2792 14.74 47.6925 14.74C47.1125 14.74 46.5825 14.8867 46.1025 15.18C45.6225 15.4733 45.2425 15.8667 44.9625 16.36C44.6825 16.8533 44.5425 17.4 44.5425 18C44.5425 18.6067 44.6858 19.1567 44.9725 19.65C45.2658 20.1367 45.6492 20.5267 46.1225 20.82C46.6025 21.1067 47.1258 21.25 47.6925 21.25Z" fill="#A45B94"/>
</svg>
